# xmcd
#
# Track frame offsets: 
#        150
#        6557
#        22878
#        42875
#        59536
#        80390
#        102563
#        119157
#        141318
#        163634
#        183393
#        200463
#        217367
#        237540
#        256930
#        273474
#        297468
#        316684
#
# Disc length: 4501 seconds
#
# Revision: 8
# Processed by: cddbd v1.5.2PL0 Copyright (c) Steve Scherf et al.
# Submitted via: ExactAudioCopyFreeDBPlugin 1.0
#
DISCID=1a119312
DTITLE=Fabolous - Real Talk
DYEAR=2004
DGENRE=Rap
TTITLE0=Exodus Feat. Black Ice
TTITLE1=Don't Stop Won't Stop
TTITLE2=Real Talk (123)
TTITLE3=Gangsta
TTITLE4=Tit 4 Tat Feat. Pharrell
TTITLE5=Baby Feat. Mike Shorey
TTITLE6=Girls
TTITLE7=Church Feat. Charlie Murphy
TTITLE8=Can You Hear Me
TTITLE9=Do The Damn Thang Feat. Young Jeezy
TTITLE10=Holla At Somebody Real Feat. Lil Mo
TTITLE11=It's Alright Feat. Sean Paul
TTITLE12=Breathe
TTITLE13=Young and Sexy Feat. Pharrell and Mike Shorey
TTITLE14=Round and Round
TTITLE15=In My Hood
TTITLE16=Ghetto Feat. Thara
TTITLE17=Po Po Feat. Paul Cain and Nate Dogg
EXTD=
EXTT0=
EXTT1=Produced by Jovann "JV" Alexander
EXTT2=Produced by Hotrunner
EXTT3=Produced by DJ Khaled
EXTT4=Produced by The Neptunes
EXTT5=Produced by Flame Throwers
EXTT6=Produced by The Trackmasters
EXTT7=Produced by Gerard Harmon and Keith Wilkins
EXTT8=Produced by J.R.
EXTT9=Produced by Reefa
EXTT10=Produced by Reefa
EXTT11=Produced by Just Blaze
EXTT12=Produced by Just Blaze
EXTT13=Produced by The Neptunes
EXTT14=Produced by Scott Storch
EXTT15=Produced by Dangerous
EXTT16=Produced by Scott Storch
EXTT17=Produced by J.R.
PLAYORDER=
